<?xml version="1.0" encoding="UTF-8"?>
<svg width="96px" height="82px" viewBox="0 0 96 82" version="1.1" xmlns="http://www.w3.org/2000/svg" xmlns:xlink="http://www.w3.org/1999/xlink">
    <g id="checkmark" stroke="none" stroke-width="1" fill="none" fill-rule="evenodd">
        <path d="M39.9411972,0.0999976207 C57.0200579,-1.34798964 79.186906,12.970124 80.9243871,40.402473 C82.6618682,67.834822 54.0193997,82 39.9411972,82 C25.8629947,82 -2.91568914,66.1878223 0.239803831,41.0499988 C3.3952968,15.9121753 14.8882768,2.22404501 39.9411972,0.0999976207 Z" id="circle" fill="#FFFFFF"></path>
        <path d="M42.3128069,53.3495263 C43.0937351,53.3495263 56.5301499,34.3014016 64.1272072,25.5857226 C71.7242645,16.8700436 83.5692386,4.07165221 85.9880622,2.15596092 C88.4068858,0.240269632 92.7115264,0.816992513 94.5904973,3.06560467 C96.4694683,5.31421683 96.3137227,9.09946158 95.0393965,10.7322551 C93.7650704,12.3650487 82.4318316,24.1671057 70.3372245,39.4129876 C58.2426174,54.6588694 47.8736807,67.1619786 46.8951977,68.2705007 C45.9167147,69.3790228 44.3854206,70.6283867 42.3128069,70.9605791 C40.2401931,71.2927715 37.8379954,69.4499294 36.7983878,68.2705007 C35.7587802,67.0910721 28.1360506,55.1204905 24.1402116,49.5756946 C20.1443727,44.0308987 13.2541606,36.7255803 11.879101,34.91892 C10.5040415,33.1122597 10.7236012,28.2418046 12.6683422,26.705172 C14.6130832,25.1685395 17.6959648,24.5556348 20.9267679,26.705172 C24.157571,28.8547093 28.870035,36.0458972 32.5111066,40.5785748 C36.1521782,45.1112525 41.5318787,53.3495263 42.3128069,53.3495263 Z" id="Path" fill="#A0CEB7"></path>
    </g>
</svg>
